<?xml version="1.0" encoding="utf-8"?>
<!-- Generator: Adobe Illustrator 26.0.3, SVG Export Plug-In . SVG Version: 6.00 Build 0)  -->
<svg version="1.1" id="Capa_1" xmlns="http://www.w3.org/2000/svg" xmlns:xlink="http://www.w3.org/1999/xlink" x="0px" y="0px"
	 viewBox="0 0 1000 1000" style="enable-background:new 0 0 1000 1000;" xml:space="preserve">
<g>
	<path d="M10,210.3L10,210.3c0-38.7,31.5-70.1,70-70h840c38.7,0,70,31.3,70,70l0,0c0,38.7-31.3,70-70,70H80
		C41.3,280.3,10,249,10,210.3L10,210.3z"/>
	<path d="M286.6,500L286.6,500c0-38.7,31.4-70,70.1-70H920c38.7,0,70,31.3,70,70l0,0c0,38.7-31.3,70-70,70H356.6
		C317.9,570,286.6,538.7,286.6,500L286.6,500z"/>
	<path d="M496.6,789.7L496.6,789.7c0-38.5,31.3-70,70-70H920c38.7,0,70,31.3,70,70l0,0c0,38.7-31.3,70-70,70H566.6
		C527.9,859.7,496.6,828.4,496.6,789.7L496.6,789.7z"/>
</g>
</svg>
