<?xml version="1.0" encoding="utf-8"?>
<!-- Svg Vector Icons : http://www.onlinewebfonts.com/icon -->
<!DOCTYPE svg PUBLIC "-//W3C//DTD SVG 1.1//EN" "http://www.w3.org/Graphics/SVG/1.1/DTD/svg11.dtd">
<svg version="1.1" xmlns="http://www.w3.org/2000/svg" xmlns:xlink="http://www.w3.org/1999/xlink" x="0px" y="0px" viewBox="0 0 1000 1000" enable-background="new 0 0 1000 1000" xml:space="preserve">
<metadata> Svg Vector Icons : http://www.onlinewebfonts.com/icon </metadata>
<g><path d="M133.3,993.1c-30.8,0-61.6-12.3-86.3-37c-49.3-49.3-49.3-129.4,0-178.7L774.3,50.1c49.3-49.3,129.4-49.3,178.7,0c49.3,49.3,49.3,129.4,0,178.7L219.6,956.1C194.9,980.8,164.1,993.1,133.3,993.1z"/><path d="M860.6,986.9c-30.8,0-61.6-12.3-86.3-37L47,222.6C-2.3,173.3-2.3,93.2,47,43.9c49.3-49.3,129.4-49.3,178.7,0L953,771.2c49.3,49.3,49.3,129.4,0,178.7C928.4,974.6,897.5,986.9,860.6,986.9z"/></g>
</svg>